<?xml version="1.0" standalone="no"?>
<!DOCTYPE svg PUBLIC "-//W3C//DTD SVG 20010904//EN"
 "http://www.w3.org/TR/2001/REC-SVG-20010904/DTD/svg10.dtd">
<svg version="1.0" xmlns="http://www.w3.org/2000/svg"
 width="450.000000pt" height="450.000000pt" viewBox="0 0 450.000000 450.000000"
 preserveAspectRatio="xMidYMid meet">
<metadata>
Created by potrace 1.11, written by Peter Selinger 2001-2013
</metadata>
<g transform="translate(0.000000,450.000000) scale(0.100000,-0.100000)"
fill="#000000" stroke="none">
<path d="M814 3333 c2 -494 6 -914 10 -933 4 -19 14 -66 22 -104 35 -168 140
-402 243 -540 247 -330 579 -525 991 -584 25 -3 110 -6 190 -5 145 0 264 16
380 50 30 9 60 18 66 19 7 1 54 20 106 43 231 101 401 232 573 442 125 151
242 415 280 629 19 105 22 249 22 1028 l0 852 -421 0 -421 0 -1 -862 -1 -863
-27 -81 c-81 -249 -303 -417 -556 -418 -108 -1 -154 7 -238 40 -193 77 -328
245 -368 459 -4 22 -8 416 -9 875 -1 459 -3 838 -4 843 0 4 -190 7 -421 7
l-419 0 3 -897z"/>
<path d="M811 575 l1 -295 97 0 c80 -1 2532 0 2727 0 l61 0 0 295 0 295 -1443
0 -1444 0 1 -295z"/>
</g>
</svg>
